<mxfile host="app.diagrams.net" agent="Mozilla/5.0 (Windows NT 10.0; Win64; x64) AppleWebKit/537.36 (KHTML, like Gecko) Chrome/114.0.0.0 Safari/537.36 Edg/114.0.1823.79" version="24.8.3">
  <diagram name="Page-1" id="Rjt0Pcee4toBv4Tqzf-K">
    <mxGraphModel dx="473" dy="264" grid="1" gridSize="10" guides="1" tooltips="1" connect="1" arrows="1" fold="1" page="1" pageScale="1" pageWidth="850" pageHeight="1100" math="0" shadow="0">
      <root>
        <mxCell id="0" />
        <mxCell id="1" parent="0" />
        <mxCell id="I4Sw9w7PqT7VzmrA5A5s-1" value="&lt;font style=&quot;font-size: 20px;&quot;&gt;VSTA0&lt;/font&gt;" style="shape=cube;whiteSpace=wrap;html=1;boundedLbl=1;backgroundOutline=1;darkOpacity=0.05;darkOpacity2=0.1;size=30;fillColor=#f8cecc;strokeColor=default;" vertex="1" parent="1">
          <mxGeometry x="240" y="200" width="120" height="120" as="geometry" />
        </mxCell>
        <mxCell id="I4Sw9w7PqT7VzmrA5A5s-14" style="edgeStyle=orthogonalEdgeStyle;shape=connector;rounded=0;orthogonalLoop=1;jettySize=auto;html=1;entryX=0;entryY=0.5;entryDx=0;entryDy=0;strokeColor=default;align=center;verticalAlign=middle;fontFamily=Helvetica;fontSize=11;fontColor=default;labelBackgroundColor=default;endArrow=blockThin;endFill=1;" edge="1" parent="1" source="I4Sw9w7PqT7VzmrA5A5s-3" target="I4Sw9w7PqT7VzmrA5A5s-9">
          <mxGeometry relative="1" as="geometry" />
        </mxCell>
        <mxCell id="I4Sw9w7PqT7VzmrA5A5s-3" value="&lt;font style=&quot;font-size: 18px;&quot;&gt;SDK Chessde&lt;/font&gt;" style="rounded=1;whiteSpace=wrap;html=1;fillColor=#dae8fc;strokeColor=default;" vertex="1" parent="1">
          <mxGeometry x="440" y="240" width="120" height="60" as="geometry" />
        </mxCell>
        <mxCell id="I4Sw9w7PqT7VzmrA5A5s-9" value="&lt;font style=&quot;font-size: 18px;&quot;&gt;Synthesis Compiler&lt;/font&gt;" style="rounded=1;whiteSpace=wrap;html=1;fillColor=#ffe6cc;strokeColor=default;" vertex="1" parent="1">
          <mxGeometry x="680" y="240" width="120" height="60" as="geometry" />
        </mxCell>
        <mxCell id="I4Sw9w7PqT7VzmrA5A5s-11" value="&lt;font style=&quot;font-size: 15px;&quot;&gt;RTL model&lt;br&gt;(verilog)&lt;/font&gt;" style="text;html=1;align=center;verticalAlign=middle;whiteSpace=wrap;rounded=0;" vertex="1" parent="1">
          <mxGeometry x="560" y="230" width="120" height="30" as="geometry" />
        </mxCell>
        <mxCell id="I4Sw9w7PqT7VzmrA5A5s-16" style="edgeStyle=orthogonalEdgeStyle;shape=connector;rounded=0;orthogonalLoop=1;jettySize=auto;html=1;exitX=0;exitY=0;exitDx=120;exitDy=75;exitPerimeter=0;entryX=0;entryY=0.584;entryDx=0;entryDy=0;entryPerimeter=0;strokeColor=default;align=center;verticalAlign=middle;fontFamily=Helvetica;fontSize=11;fontColor=default;labelBackgroundColor=default;endArrow=blockThin;endFill=1;" edge="1" parent="1" source="I4Sw9w7PqT7VzmrA5A5s-1" target="I4Sw9w7PqT7VzmrA5A5s-3">
          <mxGeometry relative="1" as="geometry" />
        </mxCell>
      </root>
    </mxGraphModel>
  </diagram>
</mxfile>
